<svg xmlns="http://www.w3.org/2000/svg" width="130pt" height="100pt" version="1.1" viewBox="0 0 1200 1200">
 <g>
  <path d="m1102.8 646.8h-14.398c-8.3984 0-25.199 0-38.398-2.3984-10.801-1.1992-18-4.8008-19.199-4.8008l-6-2.3984 3.6016-6c0-1.1992 6-7.1992 16.801-9.6016 7.1992-2.3984 19.199-3.6016 30-3.6016 7.1992-1.1992 13.199-1.1992 16.801-2.3984 7.1992-1.1992 16.801-3.6016 27.602-6h-262.81-588c-28.801 0-103.2 8.3984-133.2 14.398-21.602 4.8008-39.602 14.398-52.801 22.801h44.398l-7.1992 21.598h-38.398s-24-6-19.199-8.3984c-3.6016 2.3984-7.1992 3.6016-10.801 6v56.398c6 2.3984 12 3.6016 16.801 6 16.801 6 70.801 9.6016 70.801 9.6016l276 3.6016v-12-22.801s-3.6016-10.801 18-10.801h50.398v-2.3984s3.6016-1.1992 4.8008-1.1992c31.199 0 74.398-1.1992 106.8 7.1992 26.398 7.1992 64.801 2.3984 64.801 2.3984l34.801-1.1992s-25.199 13.199-39.602 16.801c-14.398 3.6016-106.8 7.1992-106.8 7.1992h-4.8008v18h10.801 244.8c111.6 0 344.4-85.199 344.4-85.199l6-21.602c-8.4023 2.3984-32.402 10.801-46.801 10.801zm-907.2 37.199c0 3.6016-2.3984 6-6 6h-20.398c-3.6016 0-6-2.3984-6-6v-49.199c0-3.6016 2.3984-6 6-6h20.398c3.6016 0 6 2.3984 6 6zm22.797-16.801c0 2.3984-2.3984 3.6016-3.6016 3.6016-2.3984 0-3.6016-2.3984-3.6016-3.6016v-8.3984c0-2.3984 2.3984-3.6016 3.6016-3.6016 2.3984 0 3.6016 2.3984 3.6016 3.6016zm13.203 0c0 2.3984-2.3984 3.6016-3.6016 3.6016-1.1992 0-3.6016-2.3984-3.6016-3.6016v-8.3984c0-2.3984 2.3984-3.6016 3.6016-3.6016 1.1992 0 3.6016 2.3984 3.6016 3.6016zm12 0c0 2.3984-2.3984 3.6016-3.6016 3.6016-2.3984 0-3.6016-2.3984-3.6016-3.6016v-8.3984c0-2.3984 2.3984-3.6016 3.6016-3.6016 2.3984 0 3.6016 2.3984 3.6016 3.6016zm13.199 0c0 2.3984-2.3984 3.6016-3.6016 3.6016-1.1992 0-3.6016-2.3984-3.6016-3.6016v-8.3984c0-2.3984 2.3984-3.6016 3.6016-3.6016 1.1992 0 3.6016 2.3984 3.6016 3.6016zm12 0c0 2.3984-2.3984 3.6016-3.6016 3.6016-2.3984 0-3.6016-2.3984-3.6016-3.6016v-8.3984c0-2.3984 2.3984-3.6016 3.6016-3.6016 2.3984 0 3.6016 2.3984 3.6016 3.6016zm12 0c0 2.3984-2.3984 3.6016-3.6016 3.6016-1.1992 0-3.6016-2.3984-3.6016-3.6016v-8.3984c0-2.3984 2.3984-3.6016 3.6016-3.6016 1.1992 0 3.6016 2.3984 3.6016 3.6016zm13.199 0c0 2.3984-2.3984 3.6016-3.6016 3.6016-1.1992 0-3.6016-2.3984-3.6016-3.6016v-8.3984c0-2.3984 2.3984-3.6016 3.6016-3.6016 1.1992 0 3.6016 2.3984 3.6016 3.6016zm12 0c0 2.3984-2.3984 3.6016-3.6016 3.6016-2.3984 0-3.6016-2.3984-3.6016-3.6016v-8.3984c0-2.3984 2.3984-3.6016 3.6016-3.6016 2.3984 0 3.6016 2.3984 3.6016 3.6016zm13.199 0c0 2.3984-2.3984 3.6016-3.6016 3.6016-1.1992 0-3.6016-2.3984-3.6016-3.6016v-8.3984c0-2.3984 2.3984-3.6016 3.6016-3.6016 1.1992 0 3.6016 2.3984 3.6016 3.6016zm12 0c0 2.3984-2.3984 3.6016-3.6016 3.6016-2.3984 0-3.6016-2.3984-3.6016-3.6016v-8.3984c0-2.3984 2.3984-3.6016 3.6016-3.6016 2.3984 0 3.6016 2.3984 3.6016 3.6016zm12 0c0 2.3984-2.3984 3.6016-3.6016 3.6016-1.1992 0-3.5977-1.1992-3.5977-3.6016v-8.3984c0-2.3984 2.3984-3.6016 3.6016-3.6016 1.1992 0 3.6016 2.3984 3.6016 3.6016zm13.199 0c0 2.3984-2.3984 3.6016-3.6016 3.6016-1.1953 0-4.7969-1.1992-4.7969-3.6016v-8.3984c0-2.3984 2.3984-3.6016 3.6016-3.6016 1.1992 0 3.6016 2.3984 3.6016 3.6016l-0.003906 8.3984zm12 0c0 2.3984-2.3984 3.6016-3.6016 3.6016-2.3984 0-3.6016-2.3984-3.6016-3.6016v-8.3984c0-2.3984 2.3984-3.6016 3.6016-3.6016 2.3984 0 3.6016 2.3984 3.6016 3.6016zm13.203 0c0 2.3984-2.3984 3.6016-3.6016 3.6016-1.1992 0-3.6016-2.3984-3.6016-3.6016v-8.3984c0-2.3984 2.3984-3.6016 3.6016-3.6016 1.1992 0 3.6016 2.3984 3.6016 3.6016zm12 0c0 2.3984-2.3984 3.6016-3.6016 3.6016-2.3984 0-3.6016-2.3984-3.6016-3.6016v-8.3984c0-2.3984 2.3984-3.6016 3.6016-3.6016 2.3984 0 3.6016 2.3984 3.6016 3.6016zm13.199 0c0 2.3984-2.3984 3.6016-3.6016 3.6016-2.3984 0-3.6016-2.3984-3.6016-3.6016v-8.3984c0-2.3984 2.3984-3.6016 3.6016-3.6016 2.3984 0 3.6016 2.3984 3.6016 3.6016zm12 0c0 2.3984-2.3984 3.6016-3.6016 3.6016-2.3984 0-3.6016-2.3984-3.6016-3.6016v-8.3984c0-2.3984 2.3984-3.6016 3.6016-3.6016 2.3984 0 3.6016 2.3984 3.6016 3.6016zm12 0c0 2.3984-2.3984 3.6016-3.6016 3.6016-1.1992 0-3.6016-2.3984-3.6016-3.6016v-8.3984c0-2.3984 2.3984-3.6016 3.6016-3.6016 1.1992 0 3.6016 2.3984 3.6016 3.6016zm13.199 0c0 2.3984-2.3984 3.6016-3.6016 3.6016-2.3984 0-3.6016-2.3984-3.6016-3.6016v-8.3984c0-2.3984 2.3984-3.6016 3.6016-3.6016 2.3984 0 3.6016 2.3984 3.6016 3.6016zm12 0c0 2.3984-2.3984 3.6016-3.6016 3.6016-2.3984 0-3.6016-2.3984-3.6016-3.6016v-8.3984c0-2.3984 2.3984-3.6016 3.6016-3.6016 2.3984 0 3.6016 2.3984 3.6016 3.6016zm13.199 0c0 2.3984-2.3984 3.6016-3.6016 3.6016-1.1992 0-3.6016-2.3984-3.6016-3.6016v-8.3984c0-2.3984 2.3984-3.6016 3.6016-3.6016 1.1992 0 3.6016 2.3984 3.6016 3.6016zm12 0c0 2.3984-2.3984 3.6016-3.6016 3.6016-2.3984 0-3.6016-2.3984-3.6016-3.6016v-8.3984c0-2.3984 2.3984-3.6016 3.6016-3.6016 2.3984 0 3.6016 2.3984 3.6016 3.6016zm12 0c0 2.3984-2.3984 3.6016-3.6016 3.6016-2.3984 0-3.6016-2.3984-3.6016-3.6016v-8.3984c0-2.3984 2.3984-3.6016 3.6016-3.6016 2.3984 0 3.6016 2.3984 3.6016 3.6016zm13.199 0c0 2.3984-2.3984 3.6016-3.6016 3.6016-2.3984 0-3.6016-2.3984-3.6016-3.6016v-8.3984c0-2.3984 2.3984-3.6016 3.6016-3.6016 2.3984 0 3.6016 2.3984 3.6016 3.6016zm12 0c0 2.3984-2.3984 3.6016-3.6016 3.6016-2.3984 0-3.6016-2.3984-3.6016-3.6016v-8.3984c0-2.3984 2.3984-3.6016 3.6016-3.6016 2.3984 0 3.6016 2.3984 3.6016 3.6016zm13.203 0c0 2.3984-2.3984 3.6016-3.6016 3.6016-2.3984 0-3.6016-2.3984-3.6016-3.6016v-8.3984c0-2.3984 2.3984-3.6016 3.6016-3.6016 2.3984 0 3.6016 2.3984 3.6016 3.6016zm12 0c0 2.3984-2.3984 3.6016-3.6016 3.6016-2.3984 0-3.6016-2.3984-3.6016-3.6016v-8.3984c0-2.3984 2.3984-3.6016 3.6016-3.6016 2.3984 0 3.6016 2.3984 3.6016 3.6016zm12 0c0 2.3984-2.3984 3.6016-3.6016 3.6016-1.1992 0-3.6016-2.3984-3.6016-3.6016v-8.3984c0-2.3984 2.3984-3.6016 3.6016-3.6016 1.1992 0 3.6016 2.3984 3.6016 3.6016zm13.199 0c0 2.3984-2.3984 3.6016-3.6016 3.6016-2.3984 0-3.6016-2.3984-3.6016-3.6016v-8.3984c0-2.3984 2.3984-3.6016 3.6016-3.6016 2.3984 0 3.6016 2.3984 3.6016 3.6016zm12 0c0 2.3984-2.3984 3.6016-3.6016 3.6016-2.3984 0-3.6016-2.3984-3.6016-3.6016v-8.3984c0-2.3984 2.3984-3.6016 3.6016-3.6016 2.3984 0 3.6016 2.3984 3.6016 3.6016zm13.199 0c0 2.3984-2.3984 3.6016-3.6016 3.6016-2.3984 0-3.6016-2.3984-3.6016-3.6016v-8.3984c0-2.3984 2.3984-3.6016 3.6016-3.6016 2.3984 0 3.6016 2.3984 3.6016 3.6016zm12 0c0 2.3984-2.3984 3.6016-3.6016 3.6016-2.3984 0-3.6016-2.3984-3.6016-3.6016v-8.3984c0-2.3984 2.3984-3.6016 3.6016-3.6016 2.3984 0 3.6016 2.3984 3.6016 3.6016zm12 0c0 2.3984-2.3984 3.6016-3.6016 3.6016-2.3984 0-3.6016-2.3984-3.6016-3.6016v-8.3984c0-2.3984 2.3984-3.6016 3.6016-3.6016 2.3984 0 3.6016 2.3984 3.6016 3.6016zm13.199 0c0 2.3984-2.3984 3.6016-3.6016 3.6016-2.3984 0-3.6016-2.3984-3.6016-3.6016v-8.3984c0-2.3984 2.3984-3.6016 3.6016-3.6016 2.3984 0 3.6016 2.3984 3.6016 3.6016zm67.199-8.3984c0-2.3984 2.3984-3.6016 3.6016-3.6016 2.3984 0 3.6016 2.3984 3.6016 3.6016v8.3984c0 2.3984-2.3984 3.6016-3.6016 3.6016-2.3984 0-3.6016-2.3984-3.6016-3.6016zm-13.199 0c0-2.3984 2.3984-3.6016 3.6016-3.6016 2.3984 0 3.6016 2.3984 3.6016 3.6016v8.3984c0 2.3984-2.3984 3.6016-3.6016 3.6016-2.3984 0-3.6016-2.3984-3.6016-3.6016zm-12 0c0-2.3984 2.3984-3.6016 3.6016-3.6016 2.3984 0 3.6016 2.3984 3.6016 3.6016v8.3984c0 2.3984-2.3984 3.6016-3.6016 3.6016-2.3984 0-3.6016-2.3984-3.6016-3.6016zm-30 8.3984c0 2.3984-2.3984 3.6016-3.6016 3.6016-1.1992 0-3.6016-2.3984-3.6016-3.6016v-8.3984c0-2.3984 2.3984-3.6016 3.6016-3.6016 1.1992 0 3.6016 2.3984 3.6016 3.6016zm13.199 0c0 2.3984-2.3984 3.6016-3.6016 3.6016-2.3984 0-3.6016-2.3984-3.6016-3.6016v-8.3984c0-2.3984 2.3984-3.6016 3.6016-3.6016 2.3984 0 3.6016 2.3984 3.6016 3.6016zm3.6016 0v-8.3984c0-2.3984 2.3984-3.6016 3.6016-3.6016 2.3984 0 3.6016 2.3984 3.6016 3.6016v8.3984c0 2.3984-2.3984 3.6016-3.6016 3.6016-1.2031 0-3.6016-1.1992-3.6016-3.6016zm37.199 28.801-33.602 1.1992 34.801-21.602h14.398zm21.602-28.801c0 2.3984-2.3984 3.6016-3.6016 3.6016-2.3984 0-3.6016-2.3984-3.6016-3.6016v-8.3984c0-2.3984 2.3984-3.6016 3.6016-3.6016 2.3984 0 3.6016 2.3984 3.6016 3.6016zm12 0c0 2.3984-2.3984 3.6016-3.6016 3.6016-1.1992 0-3.6016-2.3984-3.6016-3.6016v-8.3984c0-2.3984 2.3984-3.6016 3.6016-3.6016 1.1992 0 3.6016 2.3984 3.6016 3.6016zm13.199 0c0 2.3984-2.3984 3.6016-3.6016 3.6016-2.3984 0-3.6016-2.3984-3.6016-3.6016v-8.3984c0-2.3984 2.3984-3.6016 3.6016-3.6016 2.3984 0 3.6016 2.3984 3.6016 3.6016zm12 0c0 2.3984-2.3984 3.6016-3.6016 3.6016-2.3984 0-3.6016-2.3984-3.6016-3.6016v-8.3984c0-2.3984 2.3984-3.6016 3.6016-3.6016 2.3984 0 3.6016 2.3984 3.6016 3.6016zm12 0c0 2.3984-2.3984 3.6016-3.6016 3.6016-2.3984 0-3.6016-2.3984-3.6016-3.6016v-8.3984c0-2.3984 2.3984-3.6016 3.6016-3.6016 2.3984 0 3.6016 2.3984 3.6016 3.6016zm13.199 0c0 2.3984-2.3984 3.6016-3.6016 3.6016-1.1992 0-3.6016-2.3984-3.6016-3.6016v-8.3984c0-2.3984 2.3984-3.6016 3.6016-3.6016 1.1992 0 3.6016 2.3984 3.6016 3.6016zm12 0c0 2.3984-2.3984 3.6016-3.6016 3.6016-2.3984 0-3.6016-2.3984-3.6016-3.6016v-8.3984c0-2.3984 2.3984-3.6016 3.6016-3.6016 2.3984 0 3.6016 2.3984 3.6016 3.6016zm13.199 0c0 2.3984-2.3984 3.6016-3.6016 3.6016-2.3984 0-3.6016-2.3984-3.6016-3.6016v-8.3984c0-2.3984 2.3984-3.6016 3.6016-3.6016 2.3984 0 3.6016 2.3984 3.6016 3.6016zm12 0c0 2.3984-2.3984 3.6016-3.6016 3.6016-1.1992 0-3.6016-2.3984-3.6016-3.6016v-8.3984c0-2.3984 2.3984-3.6016 3.6016-3.6016 1.1992 0 3.6016 2.3984 3.6016 3.6016zm12 0c0 2.3984-2.3984 3.6016-3.6016 3.6016-2.3984 0-3.6016-2.3984-3.6016-3.6016v-8.3984c0-2.3984 2.3984-3.6016 3.6016-3.6016 2.3984 0 3.6016 2.3984 3.6016 3.6016zm13.203 0c0 2.3984-2.3984 3.6016-3.6016 3.6016-2.3984 0-3.6016-2.3984-3.6016-3.6016v-8.3984c0-2.3984 2.3984-3.6016 3.6016-3.6016 2.3984 0 3.6016 2.3984 3.6016 3.6016zm12 0c0 2.3984-2.3984 3.6016-3.6016 3.6016-1.1992 0-3.6016-2.3984-3.6016-3.6016v-8.3984c0-2.3984 2.3984-3.6016 3.6016-3.6016 1.1992 0 3.6016 2.3984 3.6016 3.6016zm13.199 0c0 2.3984-2.3984 3.6016-3.6016 3.6016-2.3984 0-3.6016-2.3984-3.6016-3.6016v-8.3984c0-2.3984 2.3984-3.6016 3.6016-3.6016 2.3984 0 3.6016 2.3984 3.6016 3.6016zm12 0c0 2.3984-2.3984 3.6016-3.6016 3.6016-2.3984 0-3.6016-2.3984-3.6016-3.6016v-8.3984c0-2.3984 2.3984-3.6016 3.6016-3.6016 2.3984 0 3.6016 2.3984 3.6016 3.6016zm12 0c0 2.3984-2.3984 3.6016-3.6016 3.6016-1.1992 0-3.6016-2.3984-3.6016-3.6016v-8.3984c0-2.3984 2.3984-3.6016 3.6016-3.6016 1.1992 0 3.6016 2.3984 3.6016 3.6016zm79.199 16.801c0 3.6016-2.3984 6-6 6h-20.398c-3.6016 0-6-2.3984-6-6v-49.199c0-3.6016 2.3984-6 6-6h20.398c3.6016 0 6 2.3984 6 6z" fill="#ffffff"/>
  <path d="m49.199 667.2c-4.8008 2.3984-10.801 4.8008-18 8.3984-18 8.3984-20.398 12-20.398 19.199 0 10.801 22.801 20.398 38.398 26.398z" fill="#ffffff"/>
  <path d="m142.8 751.2c-7.1992 0-13.199 6-13.199 13.199 0 7.1992 6 13.199 13.199 13.199s13.199-6 13.199-13.199c0-7.1992-6-13.199-13.199-13.199zm0 19.199c-3.6016 0-6-2.3984-6-6 0-3.6016 2.3984-6 6-6 3.6016 0 6 2.3984 6 6 0 3.6016-2.4023 6-6 6z" fill="#ffffff"/>
  <path d="m139.2 739.2h6v10.801h-6z" fill="#ffffff"/>
  <path d="m602.4 744c3.6016 0 7.1992 1.1992 9.6016 3.6016v-6h-19.199v6c2.3984-2.4023 6-3.6016 9.5977-3.6016z" fill="#ffffff"/>
  <path d="m90 734.4v7.1992s4.8008 4.8008 13.199 4.8008h34.801v-6c0-1.1992-32.398-3.5977-48-6z" fill="#ffffff"/>
  <path d="m189.6 631.2h-20.398c-2.3984 0-3.6016 1.1992-3.6016 3.6016v49.199c0 2.3984 1.1992 3.6016 3.6016 3.6016h20.398c2.3984 0 3.6016-1.1992 3.6016-3.6016v-49.199c-0.003906-2.4023-1.2031-3.6016-3.6016-3.6016zm-3.6016 22.801c0 1.1992-1.1992 2.3984-2.3984 2.3984h-8.3984c-1.1992 0-2.3984-1.1992-2.3984-2.3984v-8.3984c0-1.1992 1.1992-2.3984 2.3984-2.3984h8.3984c1.1992 0 2.3984 1.1992 2.3984 2.3984z" fill="#ffffff"/>
  <path d="m964.8 631.2h-20.398c-2.3984 0-3.6016 1.1992-3.6016 3.6016v49.199c0 2.3984 1.1992 3.6016 3.6016 3.6016h20.398c2.3984 0 3.6016-1.1992 3.6016-3.6016v-49.199c1.1992-2.4023-1.2031-3.6016-3.6016-3.6016zm-2.4023 22.801c0 1.1992-1.1992 2.3984-2.3984 2.3984h-8.3984c-1.1992 0-2.3984-1.1992-2.3984-2.3984v-8.3984c0-1.1992 1.1992-2.3984 2.3984-2.3984l8.3984-0.003906c1.1992 0 2.3984 1.1992 2.3984 2.3984z" fill="#ffffff"/>
  <path d="m1142.4 441.6h-13.199l8.4023-16.801h10.797l2.4023-6h-33.602l-133.2 154.8-115.2 32.398h206.4z" fill="#ffffff"/>
  <path d="m1153.2 418.8-2.3984 7.1992h-10.801l-6 13.199h12l-68.398 166.8h42l52.797-187.2z" fill="#ffffff"/>
  <path d="m1047.6 642c-9.6016-2.3984-18-6-18-6s3.6016-7.1992 14.398-9.6016c7.1992-2.3984 19.199-3.6016 30-4.8008 7.1992-1.1992 14.398-1.1992 18-2.3984 13.199-2.3984 57.602-14.398 64.801-14.398h30c4.8008 0 6 1.1992 6 2.3984 0 0 0 1.1992-3.6016 3.6016 0 0-25.199 14.398-33.602 19.199-1.1992 1.1992-31.199 13.199-52.801 13.199-14.398 1.1992-43.195 2.4023-55.195-1.1992z" fill="#ffffff"/>
  <path d="m698.4 679.2h8.4023l-10.801 14.402-22.801 1.1992z" fill="#ffffff"/>
  <path d="m486 698.4h-50.398c-19.203 0-15.602 9.6016-15.602 9.6016v20.398 21.602c0 15.602 28.801 13.199 52.801 13.199s48-4.8008 48-4.8008v-45.602z" fill="#ffffff"/>
  <path d="m519.6 717.6 21.598 4.7969v20.402l-21.598 7.1992z" fill="#ffffff"/>
  <path d="m525.6 715.2v-4.8008l-37.199-15.602h1.1992 14.398c24 0 68.398 1.1992 91.199 7.1992 9.6016 2.3984 21.602 3.6016 37.199 3.6016 15.602 0 28.801-1.1992 28.801-1.1992l21.602-1.1992c-8.3984 3.6016-19.199 9.6016-27.602 10.801-14.398 3.6016-98.398 7.1992-105.6 7.1992z" fill="#ffffff"/>
  <path d="m602.4 747.6c-8.3984 0-15.602 7.1992-15.602 15.602 0 8.3984 7.1992 15.602 15.602 15.602 8.3984 0 15.602-7.1992 15.602-15.602s-7.1992-15.602-15.602-15.602zm0 22.797c-3.6016 0-7.1992-3.6016-7.1992-7.1992 0-3.6016 3.6016-7.1992 7.1992-7.1992 3.6016 0 7.1992 3.6016 7.1992 7.1992 0.003906 4.8008-3.5977 7.1992-7.1992 7.1992z" fill="#ffffff"/>
  <path d="m62.398 660 21.602-13.199h3.6016l-25.203 15.598z" fill="#ffffff"/>
  <path d="m105.6 646.8-15.602 22.801h-2.3984l15.598-22.801z" fill="#ffffff"/>
 </g>
</svg>